<svg xmlns="http://www.w3.org/2000/svg" viewBox="0 0 96 96">
  <rect width="96" height="96" rx="22" fill="#071223"/>
  <path fill="#2563eb" d="M33 65h38c9 0 16-7 16-16s-7-16-16-16h-2C66 22 56 15 45 16 33 17 24 27 24 39v1h-2c-8 0-14 6-14 13s6 12 14 12h11Z"/>
  <path fill="#60a5fa" d="M33 65h36c6 0 11-5 11-11s-5-11-11-11h-6l-2-5c-3-8-11-13-20-12-9 1-16 8-17 17l-1 5h-4c-5 0-9 4-9 9s4 8 9 8h14Z" opacity=".88"/>
  <path fill="none" stroke="#fff" stroke-linecap="round" stroke-linejoin="round" stroke-width="5" d="m39 43-9 8 9 8m18-16 9 8-9 8m-4-19-10 22"/>
</svg>
